<svg xmlns="http://www.w3.org/2000/svg" xmlns:xlink="http://www.w3.org/1999/xlink" width="1922.001" height="6284" viewBox="0 0 1922.001 6284">
  <defs>
    <linearGradient id="linear-gradient" x1="0.5" x2="0.5" y2="1" gradientUnits="objectBoundingBox">
      <stop offset="0" stop-color="#b8b0d9"/>
      <stop offset="0.548" stop-color="#e9e9e9"/>
      <stop offset="1" stop-color="#fff"/>
    </linearGradient>
    <linearGradient id="linear-gradient-2" x1="0.5" x2="0.5" y2="0.068" gradientUnits="objectBoundingBox">
      <stop offset="0" stop-color="#fff"/>
      <stop offset="1" stop-color="#b8b0d9"/>
    </linearGradient>
  </defs>
  <g id="Rectangles_fond" data-name="Rectangles fond" transform="translate(0.001 -157)">
    <rect id="Rectangle_6" data-name="Rectangle 6" width="1922" height="674" transform="translate(0 157)" opacity="0.56" fill="url(#linear-gradient)"/>
    <rect id="Rectangle_18" data-name="Rectangle 18" width="1920" height="5619" transform="translate(0 822)" opacity="0.1" fill="url(#linear-gradient-2)"/>
    <path id="Union_3" data-name="Union 3" d="M1134.338,1107.093c-172.792-8.408-342.108-16.815-516.485-1.847C194.666,1141.571,0,1075.18,0,1075.18H1920c-165.5,32.409-320.272,42-469.186,42C1342.853,1117.177,1237.959,1112.135,1134.338,1107.093ZM0,1075.18V90.378H.005c1.7-.269,411.8-65.132,781.267-38.7,30.964,2.215,59.114,5.962,89.52,9.491C942.449,69.482,1004,71.671,1066.109,72.028c145,.833,242.279-15.542,384.125-20.355,136.349-4.627,274.074.384,469.761,38.7h0v984.8Z" transform="translate(0 1748.739)" fill="#b8b0d9" opacity="0.15"/>
    <path id="Union_6" data-name="Union 6" d="M1134.338,1107.093c-172.792-8.408-342.108-16.815-516.485-1.847C194.666,1141.571,0,1075.18,0,1075.18H1920c-165.5,32.409-320.272,42-469.186,42C1342.853,1117.177,1237.959,1112.135,1134.338,1107.093ZM0,1075.18V90.378H.005c1.7-.269,411.8-65.132,781.267-38.7,30.964,2.215,59.114,5.962,89.52,9.491C942.449,69.482,1004,71.671,1066.109,72.028c145,.833,242.279-15.542,384.125-20.355,136.349-4.627,274.074.384,469.761,38.7h0v984.8Z" transform="translate(-0.001 3953.822)" fill="#b8b0d9" opacity="0.15"/>
  </g>
</svg>
