<svg id="instagram_1_" data-name="instagram (1)" xmlns="http://www.w3.org/2000/svg" width="60.003" height="60.003" viewBox="0 0 60.003 60.003">
  <path id="Tracé_97" data-name="Tracé 97" d="M218.485,212.743A5.743,5.743,0,1,1,212.743,207,5.742,5.742,0,0,1,218.485,212.743Zm0,0" transform="translate(-182.741 -182.741)"/>
  <path id="Tracé_98" data-name="Tracé 98" d="M163.038,139.452a5.7,5.7,0,0,0-3.27-3.27,9.532,9.532,0,0,0-3.2-.593c-1.817-.083-2.362-.1-6.962-.1s-5.145.017-6.962.1a9.538,9.538,0,0,0-3.2.593,5.707,5.707,0,0,0-3.27,3.27,9.534,9.534,0,0,0-.593,3.2c-.083,1.817-.1,2.361-.1,6.962s.018,5.145.1,6.962a9.53,9.53,0,0,0,.593,3.2,5.7,5.7,0,0,0,3.27,3.27,9.52,9.52,0,0,0,3.2.593c1.817.083,2.361.1,6.961.1s5.146-.017,6.962-.1a9.52,9.52,0,0,0,3.2-.593,5.7,5.7,0,0,0,3.27-3.27,9.54,9.54,0,0,0,.593-3.2c.083-1.817.1-2.362.1-6.962s-.017-5.145-.1-6.962A9.519,9.519,0,0,0,163.038,139.452Zm-13.43,19.007a8.846,8.846,0,1,1,8.846-8.846A8.846,8.846,0,0,1,149.608,158.458Zm9.2-15.975a2.067,2.067,0,1,1,2.067-2.067A2.067,2.067,0,0,1,158.8,142.483Zm0,0" transform="translate(-119.607 -119.61)"/>
  <path id="Tracé_99" data-name="Tracé 99" d="M30,0A30,30,0,1,0,60,30,30,30,0,0,0,30,0ZM47.125,37.1a12.64,12.64,0,0,1-.8,4.182,8.809,8.809,0,0,1-5.038,5.038,12.648,12.648,0,0,1-4.181.8c-1.837.084-2.424.1-7.1.1s-5.265-.02-7.1-.1a12.648,12.648,0,0,1-4.181-.8,8.809,8.809,0,0,1-5.038-5.038,12.637,12.637,0,0,1-.8-4.181c-.085-1.838-.1-2.424-.1-7.1s.02-5.266.1-7.1a12.641,12.641,0,0,1,.8-4.182,8.815,8.815,0,0,1,5.039-5.038,12.651,12.651,0,0,1,4.182-.8c1.837-.084,2.424-.1,7.1-.1s5.265.02,7.1.1a12.654,12.654,0,0,1,4.182.8,8.811,8.811,0,0,1,5.038,5.039,12.638,12.638,0,0,1,.8,4.182c.084,1.837.1,2.424.1,7.1S47.21,35.267,47.125,37.1Zm0,0"/>
</svg>
