<svg xmlns="http://www.w3.org/2000/svg" width="215" height="91.573" viewBox="0 0 215 91.573">
  <path id="Exclusion_3" data-name="Exclusion 3" d="M-518.242-3022.185a1.8,1.8,0,0,1-.9-.24l-40.672-23.407a1.787,1.787,0,0,1-.832-1.079l-1.97-7.327a1.772,1.772,0,0,1,1.269-2.192l1.448-.387a1.851,1.851,0,0,0,1.269-2.19l-3.939-14.654a1.765,1.765,0,0,0-.831-1.079,1.8,1.8,0,0,0-.894-.24,1.788,1.788,0,0,0-.46.062l-1.446.385a1.9,1.9,0,0,1-.474.062,1.789,1.789,0,0,1-1.724-1.327l-.389-1.443a1.777,1.777,0,0,0-.831-1.079,1.8,1.8,0,0,0-.893-.238,1.784,1.784,0,0,0-.46.061,1.85,1.85,0,0,0-1.27,2.191l.388,1.443a1.77,1.77,0,0,1-.175,1.359,1.785,1.785,0,0,1-1.094.832l-1.448.386a1.853,1.853,0,0,0-1.268,2.194l3.937,14.653a1.777,1.777,0,0,0,.833,1.08,1.8,1.8,0,0,0,.891.238,1.817,1.817,0,0,0,.461-.061l1.447-.387a1.834,1.834,0,0,1,.472-.062,1.792,1.792,0,0,1,1.727,1.329l2.381,8.763a1.751,1.751,0,0,0,.831,1.079l20.736,11.934a1.782,1.782,0,0,1,.808,2.092,1.8,1.8,0,0,1-1.714,1.238c-.059,0-.121,0-.184-.009a42.7,42.7,0,0,1-17.034-5.487A42.885,42.885,0,0,1-576-3092.31a42.9,42.9,0,0,1,16.078-15.881,43.483,43.483,0,0,1,21.267-5.567,42.954,42.954,0,0,1,10.908,1.406,43.107,43.107,0,0,1,10.51,4.316l.037.022a42.883,42.883,0,0,1,15.756,58.616,42.43,42.43,0,0,1-10.175,11.837,43.089,43.089,0,0,1-13.734,7.421l8.008,4.609a1.793,1.793,0,0,1,.658,2.451A1.808,1.808,0,0,1-518.242-3022.185Zm6.5-41.548a4.891,4.891,0,0,0-2.753.83,5.9,5.9,0,0,0-1.981,2.251,6.816,6.816,0,0,0-.733,3.161,6.437,6.437,0,0,0,1.03,3.613,6.82,6.82,0,0,0,2.933,2.428,10.535,10.535,0,0,0,4.4.869,12.262,12.262,0,0,0,5.408-1.185,9.7,9.7,0,0,0,3.843-3.237,7.965,7.965,0,0,0,1.407-4.583,8.637,8.637,0,0,0-.694-3.456,12.553,12.553,0,0,0-1.664-2.824c-.645-.814-1.5-1.8-2.555-2.922a32.3,32.3,0,0,1-2.854-3.5,5.217,5.217,0,0,1-.91-2.942,4.144,4.144,0,0,1,1.01-2.864,3.342,3.342,0,0,1,2.6-1.125,2.8,2.8,0,0,1,2.06.75,2.734,2.734,0,0,1,.753,2.016,4.357,4.357,0,0,1-.435,1.9,3.846,3.846,0,0,1-1.188,1.462,2.878,2.878,0,0,0,2.417,1.223,2.683,2.683,0,0,0,2.179-1.026,4.153,4.153,0,0,0,.832-2.686,4.868,4.868,0,0,0-1.922-4.029,8.143,8.143,0,0,0-5.131-1.5,10.65,10.65,0,0,0-4.557.948,7.885,7.885,0,0,0-3.169,2.586,6.312,6.312,0,0,0-1.149,3.693,7.191,7.191,0,0,0,1.09,3.851,33.911,33.911,0,0,0,3.228,4.208,33.183,33.183,0,0,1,3.091,4.028,6.58,6.58,0,0,1,1.031,3.515,4.88,4.88,0,0,1-1.367,3.536,4.658,4.658,0,0,1-3.467,1.4,3.723,3.723,0,0,1-2.734-1.026,3.7,3.7,0,0,1-1.03-2.727,3.748,3.748,0,0,1,1.229-2.943,4.809,4.809,0,0,1,3.289-1.085,2.991,2.991,0,0,0-1.189-1.916A3.889,3.889,0,0,0-511.738-3063.733Zm-26.945-25h0a18.031,18.031,0,0,0-15.572,8.936,17.873,17.873,0,0,0,6.568,24.431l.008,0,.008.006a17.953,17.953,0,0,0,8.919,2.379,18.029,18.029,0,0,0,15.574-8.935,17.877,17.877,0,0,0-6.567-24.433,17.955,17.955,0,0,0-8.935-2.389Zm1.2-16.337a28.736,28.736,0,0,1,14.3,3.846,1.8,1.8,0,0,0,.9.241,1.807,1.807,0,0,0,1.561-.9,1.794,1.794,0,0,0-.658-2.45,32.3,32.3,0,0,0-16.083-4.321,32.655,32.655,0,0,0-8.472,1.125,1.77,1.77,0,0,0-1.269,2.192,1.768,1.768,0,0,0,.832,1.078,1.832,1.832,0,0,0,.913.247,1.744,1.744,0,0,0,.455-.062A29.062,29.062,0,0,1-537.486-3105.07Zm84.353,54.017a6.382,6.382,0,0,1-4.518-1.521,6.268,6.268,0,0,1-1.624-4.759,19.6,19.6,0,0,1,1.07-6,14,14,0,0,1,3.487-5.668,8.408,8.408,0,0,1,6.142-2.39,4.893,4.893,0,0,1,3.269.948,3.584,3.584,0,0,1,1.09,2.845,7.091,7.091,0,0,1-1.268,4.067,9.377,9.377,0,0,1-3.368,2.983,10.954,10.954,0,0,1-4.477,1.283c-.053.585-.079.974-.079,1.186,0,2.175.826,3.278,2.456,3.278a5.665,5.665,0,0,0,2.377-.592,9.729,9.729,0,0,0,2.3-1.5,7.286,7.286,0,0,1-2.249,4.384A6.893,6.893,0,0,1-453.134-3051.054Zm4.874-18.249c-.92,0-1.847.843-2.754,2.508a21,21,0,0,0-2.04,5.629,5.064,5.064,0,0,0,2.833-.987,7.207,7.207,0,0,0,2.139-2.431,6.384,6.384,0,0,0,.812-3.1C-447.27-3068.757-447.6-3069.3-448.26-3069.3Zm-22.348,18.249a5.175,5.175,0,0,1-3.585-1.165,3.876,3.876,0,0,1-1.166-2.168,7.169,7.169,0,0,1-1.727,1.812,7.527,7.527,0,0,1-4.339,1.521,3.811,3.811,0,0,1-2.674-.929,4.167,4.167,0,0,1-1.208-2.706,11.089,11.089,0,0,1-2.557,2.627,5.625,5.625,0,0,1-3.348,1.007,5.071,5.071,0,0,1-3.764-1.541,6.707,6.707,0,0,1-1.505-4.819,18.083,18.083,0,0,1,1.169-6.143,14.2,14.2,0,0,1,3.487-5.45,7.725,7.725,0,0,1,5.528-2.231,4.271,4.271,0,0,1,2.417.552,1.71,1.71,0,0,1,.792,1.461v.276l.435-2.093h5.706l-2.853,13.429a4.9,4.9,0,0,0-.159,1.264c0,1.128.547,1.7,1.625,1.7a2.4,2.4,0,0,0,1.921-1.029,7.741,7.741,0,0,0,1.288-2.686l2.695-12.678h5.706l-2.853,13.429a8.326,8.326,0,0,0-.2,1.422,1.175,1.175,0,0,0,1.347,1.3c1.21,0,2.349-.771,3.387-2.292a19.715,19.715,0,0,0,2.516-5.45,19.461,19.461,0,0,0,.951-5.451c-.053.132-.228.231-.516.3a3.431,3.431,0,0,1-.753.1,1.169,1.169,0,0,1-1.049-.631,2.666,2.666,0,0,1-.377-1.382,2.052,2.052,0,0,1,.614-1.54,2.568,2.568,0,0,1,1.842-.592,2.074,2.074,0,0,1,1.9.967,4.671,4.671,0,0,1,.593,2.468,26.38,26.38,0,0,1-1.228,7.6,18.158,18.158,0,0,1-3.764,6.891A8.134,8.134,0,0,1-470.608-3051.054Zm-14.462-17.734a3.551,3.551,0,0,0-2.852,1.836,14.584,14.584,0,0,0-1.982,4.423,17.554,17.554,0,0,0-.713,4.563,3.748,3.748,0,0,0,.574,2.527,1.958,1.958,0,0,0,1.407.554,2.872,2.872,0,0,0,1.961-.929,4.882,4.882,0,0,0,1.327-2.547l1.9-8.927a1.607,1.607,0,0,0-.4-1.006A1.488,1.488,0,0,0-485.071-3068.788Zm58.287,17.5h-5.706l5.746-26.859a8.829,8.829,0,0,0-4.1,3.318,9.575,9.575,0,0,0-1.447,5.332,5.2,5.2,0,0,0,.277,2.035,3.309,3.309,0,0,1,.278.651,4.873,4.873,0,0,1-3.19-.888,3.683,3.683,0,0,1-1.049-2.943,7.486,7.486,0,0,1,2.08-4.918,15.479,15.479,0,0,1,5.329-3.871,15.61,15.61,0,0,1,6.5-1.48c.375,0,.909.025,1.585.078l-2.535,11.77h5.825l2.536-11.77h5.706l-6.3,29.544h-5.705l3.169-14.852h-5.825l-3.17,14.852Zm43.467,0h-5.706l5.626-26.149h-.475a7.965,7.965,0,0,0-5.487,1.758c-1.3,1.167-1.962,3.259-1.962,6.22a5.192,5.192,0,0,0,.278,2.034,3.444,3.444,0,0,1,.278.652,4.875,4.875,0,0,1-3.19-.889,3.68,3.68,0,0,1-1.05-2.943,9.793,9.793,0,0,1,1.388-5.114,9.858,9.858,0,0,1,4.417-3.733,18.273,18.273,0,0,1,7.707-1.421,36.361,36.361,0,0,1,5.626.475,27.3,27.3,0,0,0,4.518.434,12.266,12.266,0,0,0,4.6-.83,5.426,5.426,0,0,1-1.308,3.792,4.974,4.974,0,0,1-3.645,1.225,16.516,16.516,0,0,1-2.536-.2c-.839-.131-2.018-.35-3.605-.67l-5.468,25.356Zm-17.355,0h-5.706l5.746-26.819a8.635,8.635,0,0,0-4.1,3.258,9.544,9.544,0,0,0-1.447,5.352,5.183,5.183,0,0,0,.278,2.035,3.4,3.4,0,0,1,.276.651,4.866,4.866,0,0,1-3.189-.888,3.679,3.679,0,0,1-1.051-2.943,7.489,7.489,0,0,1,2.081-4.918,15.482,15.482,0,0,1,5.329-3.871,15.61,15.61,0,0,1,6.5-1.48c.375,0,.908.025,1.584.078l-6.3,29.544Zm-138.058-15.991a3.614,3.614,0,0,1-1.791-.477,3.54,3.54,0,0,1-1.673-2.164,3.53,3.53,0,0,1,.362-2.713,3.629,3.629,0,0,1,3.127-1.791,3.6,3.6,0,0,1,1.791.478.011.011,0,0,1,.006,0,3.537,3.537,0,0,1,1.669,2.163,3.53,3.53,0,0,1-.363,2.71A3.631,3.631,0,0,1-538.73-3067.282Zm100.455-4.547h-2.773l2.972-9.165h4.16l-4.358,9.162Z" transform="translate(581.755 3113.758)" fill="#fff"/>
</svg>
