<svg xmlns="http://www.w3.org/2000/svg" width="260" height="111.324" viewBox="0 0 260 111.324">
  <path id="Exclusion_1" d="M-504.949-3002.433a2.168,2.168,0,0,1-1.084-.292l-49.185-28.456a2.167,2.167,0,0,1-1.006-1.31l-2.382-8.908a2.155,2.155,0,0,1,1.535-2.665l1.751-.47a2.253,2.253,0,0,0,1.535-2.665l-4.764-17.814a2.143,2.143,0,0,0-1-1.312,2.171,2.171,0,0,0-1.081-.291,2.152,2.152,0,0,0-.556.074l-1.749.468a2.187,2.187,0,0,1-.573.077,2.166,2.166,0,0,1-2.085-1.614l-.47-1.753a2.156,2.156,0,0,0-1-1.312,2.165,2.165,0,0,0-1.08-.29,2.161,2.161,0,0,0-.557.073,2.251,2.251,0,0,0-1.535,2.665l.469,1.754a2.162,2.162,0,0,1-.212,1.652,2.156,2.156,0,0,1-1.323,1.011l-1.751.47a2.254,2.254,0,0,0-1.534,2.667l4.761,17.814a2.157,2.157,0,0,0,1.007,1.312,2.168,2.168,0,0,0,1.078.289,2.133,2.133,0,0,0,.558-.074l1.749-.47a2.232,2.232,0,0,1,.571-.075,2.171,2.171,0,0,1,2.088,1.614l2.879,10.655a2.131,2.131,0,0,0,1.006,1.31l25.077,14.508a2.169,2.169,0,0,1,.977,2.542,2.177,2.177,0,0,1-2.073,1.506c-.071,0-.146,0-.222-.011a51.45,51.45,0,0,1-20.6-6.671,52.283,52.283,0,0,1-19.053-71.258,52,52,0,0,1,19.443-19.308,52.378,52.378,0,0,1,25.719-6.767,51.691,51.691,0,0,1,13.191,1.709,52,52,0,0,1,12.71,5.246l.045.027a52.283,52.283,0,0,1,19.054,71.259,51.485,51.485,0,0,1-12.3,14.389,51.971,51.971,0,0,1-16.609,9.023l9.684,5.6a2.187,2.187,0,0,1,.8,2.98A2.184,2.184,0,0,1-504.949-3002.433Zm7.866-50.51a5.887,5.887,0,0,0-3.33,1.009,7.151,7.151,0,0,0-2.4,2.737,8.326,8.326,0,0,0-.887,3.842,7.859,7.859,0,0,0,1.246,4.393,8.269,8.269,0,0,0,3.546,2.952,12.693,12.693,0,0,0,5.319,1.056,14.761,14.761,0,0,0,6.54-1.441,11.748,11.748,0,0,0,4.647-3.936,9.713,9.713,0,0,0,1.7-5.571,10.547,10.547,0,0,0-.839-4.2,15.3,15.3,0,0,0-2.013-3.434c-.78-.989-1.819-2.184-3.089-3.553a39.1,39.1,0,0,1-3.451-4.25,6.361,6.361,0,0,1-1.1-3.576,5.057,5.057,0,0,1,1.221-3.482,4.033,4.033,0,0,1,3.138-1.368,3.377,3.377,0,0,1,2.492.911,3.334,3.334,0,0,1,.91,2.45,5.322,5.322,0,0,1-.527,2.305,4.675,4.675,0,0,1-1.437,1.777,3.475,3.475,0,0,0,2.923,1.489,3.238,3.238,0,0,0,2.635-1.248,5.066,5.066,0,0,0,1.006-3.265,5.929,5.929,0,0,0-2.324-4.9,9.815,9.815,0,0,0-6.2-1.826,12.837,12.837,0,0,0-5.511,1.153,9.536,9.536,0,0,0-3.833,3.145,7.7,7.7,0,0,0-1.389,4.49,8.777,8.777,0,0,0,1.318,4.681,41.177,41.177,0,0,0,3.9,5.115,40.232,40.232,0,0,1,3.737,4.9,8.027,8.027,0,0,1,1.247,4.273,5.948,5.948,0,0,1-1.654,4.3,5.614,5.614,0,0,1-4.193,1.705,4.49,4.49,0,0,1-3.306-1.248,4.508,4.508,0,0,1-1.246-3.314,4.565,4.565,0,0,1,1.486-3.577,5.8,5.8,0,0,1,3.978-1.319,3.636,3.636,0,0,0-1.438-2.33A4.686,4.686,0,0,0-497.083-3052.942Zm-32.585-30.393h0A21.782,21.782,0,0,0-548.5-3072.47a21.791,21.791,0,0,0,7.942,29.7l.009.006.009.006a21.605,21.605,0,0,0,10.786,2.895,21.782,21.782,0,0,0,18.833-10.864,21.794,21.794,0,0,0-7.941-29.7,21.612,21.612,0,0,0-10.805-2.9Zm1.447-19.86a34.6,34.6,0,0,1,17.295,4.674,2.158,2.158,0,0,0,1.084.293,2.183,2.183,0,0,0,1.888-1.09,2.187,2.187,0,0,0-.8-2.979,38.9,38.9,0,0,0-19.45-5.253,39.313,39.313,0,0,0-10.245,1.368,2.154,2.154,0,0,0-1.535,2.665,2.146,2.146,0,0,0,1.006,1.311,2.2,2.2,0,0,0,1.1.3,2.12,2.12,0,0,0,.55-.073A34.944,34.944,0,0,1-528.221-3103.2Zm102.008,65.667a7.691,7.691,0,0,1-5.463-1.849c-1.3-1.227-1.964-3.174-1.964-5.786a23.924,23.924,0,0,1,1.294-7.3,17.021,17.021,0,0,1,4.216-6.89,10.135,10.135,0,0,1,7.427-2.906,5.888,5.888,0,0,1,3.953,1.152,4.367,4.367,0,0,1,1.318,3.458,8.651,8.651,0,0,1-1.534,4.945,11.376,11.376,0,0,1-4.073,3.626,13.188,13.188,0,0,1-5.414,1.56c-.064.713-.1,1.185-.1,1.442,0,2.644,1,3.985,2.971,3.985a6.821,6.821,0,0,0,2.875-.72,11.684,11.684,0,0,0,2.78-1.825,8.867,8.867,0,0,1-2.72,5.33A8.3,8.3,0,0,1-426.213-3037.529Zm5.893-22.185c-1.112,0-2.233,1.026-3.331,3.05a25.635,25.635,0,0,0-2.467,6.843,6.089,6.089,0,0,0,3.426-1.2,8.753,8.753,0,0,0,2.587-2.954,7.8,7.8,0,0,0,.982-3.77C-419.121-3059.052-419.524-3059.714-420.319-3059.714Zm-27.026,22.185a6.237,6.237,0,0,1-4.335-1.416,4.716,4.716,0,0,1-1.41-2.636,8.676,8.676,0,0,1-2.089,2.2,9.068,9.068,0,0,1-5.247,1.849,4.6,4.6,0,0,1-3.234-1.129,5.077,5.077,0,0,1-1.461-3.289,13.478,13.478,0,0,1-3.092,3.194,6.776,6.776,0,0,1-4.049,1.224,6.115,6.115,0,0,1-4.552-1.873c-1.208-1.242-1.82-3.213-1.82-5.858a22.071,22.071,0,0,1,1.414-7.467,17.267,17.267,0,0,1,4.216-6.626,9.312,9.312,0,0,1,6.685-2.714,5.145,5.145,0,0,1,2.923.673,2.081,2.081,0,0,1,.958,1.777v.335l.527-2.545h6.9l-3.45,16.326a5.981,5.981,0,0,0-.192,1.536c0,1.371.661,2.066,1.965,2.066a2.9,2.9,0,0,0,2.324-1.25,9.442,9.442,0,0,0,1.557-3.265l3.259-15.414h6.9l-3.45,16.326a10.131,10.131,0,0,0-.24,1.729,1.424,1.424,0,0,0,1.629,1.584c1.463,0,2.841-.937,4.1-2.785a24.007,24.007,0,0,0,3.043-6.627,23.763,23.763,0,0,0,1.15-6.627c-.065.161-.275.282-.624.36a4.072,4.072,0,0,1-.91.12,1.415,1.415,0,0,1-1.269-.768,3.255,3.255,0,0,1-.456-1.68,2.506,2.506,0,0,1,.742-1.873,3.1,3.1,0,0,1,2.228-.72,2.5,2.5,0,0,1,2.3,1.176,5.71,5.71,0,0,1,.718,3,32.224,32.224,0,0,1-1.485,9.244,22.12,22.12,0,0,1-4.552,8.378A9.817,9.817,0,0,1-447.345-3037.529Zm-17.489-21.56a4.294,4.294,0,0,0-3.45,2.232,17.789,17.789,0,0,0-2.4,5.378,21.438,21.438,0,0,0-.862,5.546c0,1.593.234,2.627.695,3.073a2.363,2.363,0,0,0,1.7.673,3.466,3.466,0,0,0,2.372-1.129,5.946,5.946,0,0,0,1.6-3.1l2.3-10.852a1.96,1.96,0,0,0-.479-1.223A1.8,1.8,0,0,0-464.835-3059.089Zm70.486,21.273h-6.9l6.948-32.652a10.684,10.684,0,0,0-4.96,4.033,11.685,11.685,0,0,0-1.749,6.482,6.342,6.342,0,0,0,.336,2.473,4.156,4.156,0,0,1,.336.791,5.871,5.871,0,0,1-3.858-1.079,4.488,4.488,0,0,1-1.269-3.577,9.128,9.128,0,0,1,2.515-5.979,18.738,18.738,0,0,1,6.445-4.706,18.8,18.8,0,0,1,7.858-1.8c.454,0,1.1.032,1.917.1l-3.066,14.308h7.044l3.066-14.308h6.9l-7.619,35.916h-6.9l3.833-18.055h-7.044l-3.833,18.055Zm52.565,0h-6.9l6.8-31.789h-.574a9.6,9.6,0,0,0-6.636,2.138c-1.575,1.418-2.373,3.962-2.373,7.563a6.35,6.35,0,0,0,.336,2.472,4.184,4.184,0,0,1,.336.793,5.868,5.868,0,0,1-3.858-1.081,4.484,4.484,0,0,1-1.27-3.577,11.958,11.958,0,0,1,1.678-6.219,11.936,11.936,0,0,1,5.342-4.538,22,22,0,0,1,9.32-1.727,43.708,43.708,0,0,1,6.8.576,32.737,32.737,0,0,0,5.464.528,14.774,14.774,0,0,0,5.558-1.008,6.62,6.62,0,0,1-1.582,4.61,6,6,0,0,1-4.407,1.489,19.934,19.934,0,0,1-3.067-.24c-1.014-.159-2.44-.426-4.36-.815l-6.612,30.825Zm-20.988,0h-6.9l6.948-32.6a10.454,10.454,0,0,0-4.959,3.962,11.642,11.642,0,0,0-1.749,6.505,6.325,6.325,0,0,0,.336,2.473,4.224,4.224,0,0,1,.334.791,5.863,5.863,0,0,1-3.856-1.079,4.484,4.484,0,0,1-1.27-3.577,9.128,9.128,0,0,1,2.516-5.979,18.739,18.739,0,0,1,6.445-4.706,18.805,18.805,0,0,1,7.858-1.8c.453,0,1.1.032,1.916.1l-7.618,35.916Zm-166.953-19.44a4.353,4.353,0,0,1-2.166-.58,4.3,4.3,0,0,1-2.023-2.63,4.308,4.308,0,0,1,.438-3.3,4.383,4.383,0,0,1,3.782-2.177,4.351,4.351,0,0,1,2.166.58l.008.005a4.3,4.3,0,0,1,2.018,2.629,4.311,4.311,0,0,1-.44,3.295A4.386,4.386,0,0,1-529.725-3057.257Zm121.48-5.53H-411.6l3.594-11.14h5.031l-5.271,11.139Z" transform="translate(581.755 3113.757)" fill="#150f40"/>
</svg>
