<svg xmlns="http://www.w3.org/2000/svg" width="60.003" height="60.003" viewBox="0 0 60.003 60.003">
  <path id="twitter_1_" data-name="twitter (1)" d="M30,0A30,30,0,1,0,60,30,30,30,0,0,0,30,0ZM43.7,23.392q.02.443.02.89c0,9.1-6.926,19.592-19.593,19.593h0a19.492,19.492,0,0,1-10.555-3.093,14.006,14.006,0,0,0,1.643.1,13.817,13.817,0,0,0,8.553-2.948,6.894,6.894,0,0,1-6.433-4.783,6.863,6.863,0,0,0,3.11-.118,6.888,6.888,0,0,1-5.525-6.75c0-.031,0-.059,0-.088a6.839,6.839,0,0,0,3.119.861,6.892,6.892,0,0,1-2.132-9.193,19.551,19.551,0,0,0,14.194,7.2,6.89,6.89,0,0,1,11.734-6.28A13.812,13.812,0,0,0,46.209,17.1,6.913,6.913,0,0,1,43.18,20.91a13.734,13.734,0,0,0,3.954-1.085A13.994,13.994,0,0,1,43.7,23.392Zm0,0"/>
</svg>
