<svg xmlns="http://www.w3.org/2000/svg" width="1920.001" height="1071.833" viewBox="0 0 1920.001 1071.833">
  <path id="Union_3" data-name="Union 3" d="M1134.338,1107.093c-172.792-8.408-342.108-16.815-516.485-1.847C194.666,1141.571,0,1075.18,0,1075.18H1920c-165.5,32.409-320.272,42-469.186,42C1342.853,1117.177,1237.959,1112.135,1134.338,1107.093ZM0,1075.18V90.378H.005c1.7-.269,411.8-65.132,781.267-38.7,30.964,2.215,59.114,5.962,89.52,9.491C942.449,69.482,1004,71.671,1066.109,72.028c145,.833,242.279-15.542,384.125-20.355,136.349-4.627,274.074.384,469.761,38.7h0v984.8Z" transform="translate(0 -45.344)" fill="#b8b0d9" opacity="0.15"/>
</svg>
