<svg id="youtube_1_" data-name="youtube (1)" xmlns="http://www.w3.org/2000/svg" width="60.003" height="60.003" viewBox="0 0 60.003 60.003">
  <path id="Tracé_100" data-name="Tracé 100" d="M224.113,219.281l9.759-5.621-9.759-5.621Zm0,0" transform="translate(-197.848 -183.658)"/>
  <path id="Tracé_101" data-name="Tracé 101" d="M30,0A30,30,0,1,0,60,30,30,30,0,0,0,30,0ZM48.748,30.032s0,6.084-.772,9.018a4.7,4.7,0,0,1-3.3,3.3c-2.934.772-14.67.772-14.67.772s-11.705,0-14.67-.8a4.7,4.7,0,0,1-3.3-3.3c-.772-2.9-.772-9.018-.772-9.018s0-6.084.772-9.018a4.793,4.793,0,0,1,3.3-3.335c2.934-.772,14.67-.772,14.67-.772s11.736,0,14.67.8a4.7,4.7,0,0,1,3.3,3.3c.8,2.934.772,9.049.772,9.049Zm0,0"/>
</svg>
